<?xml version="1.0" ?><svg viewBox="0 0 32 32" xmlns="http://www.w3.org/2000/svg"><g data-name="Layer 4" id="Layer_4"><path d="M8,16l7.74-7.74a.93.93,0,1,0-1.32-1.32L6,15.34a.92.92,0,0,0,0,1.32l8.4,8.4a.93.93,0,0,0,.66.27.93.93,0,0,0,.66-1.59Z"/><path d="M16,2A14,14,0,1,0,30,16,14,14,0,0,0,16,2Zm0,26.13A12.13,12.13,0,1,1,28.13,16,12.14,12.14,0,0,1,16,28.13Z"/><path d="M21.33,6.94a.94.94,0,0,0-1.32,0l-8.4,8.4a.92.92,0,0,0,0,1.32l8.4,8.4a.93.93,0,0,0,.66.27.93.93,0,0,0,.66-1.59L13.59,16l7.74-7.74A.94.94,0,0,0,21.33,6.94Z"/></g></svg>