<?xml version="1.0" ?><svg viewBox="0 0 32 32" xmlns="http://www.w3.org/2000/svg"><g data-name="Layer 3" id="Layer_3"><path d="M26,15.34l-8.4-8.4a.93.93,0,1,0-1.32,1.32L24,16l-7.74,7.74a.93.93,0,0,0,.66,1.59.93.93,0,0,0,.66-.27l8.4-8.4A.92.92,0,0,0,26,15.34Z"/><path d="M20.39,15.34,12,6.94a.93.93,0,1,0-1.32,1.32L18.41,16l-7.74,7.74a.93.93,0,0,0,.66,1.59.93.93,0,0,0,.66-.27l8.4-8.4A.92.92,0,0,0,20.39,15.34Z"/><path d="M16,2A14,14,0,1,0,30,16,14,14,0,0,0,16,2Zm0,26.13A12.13,12.13,0,1,1,28.13,16,12.14,12.14,0,0,1,16,28.13Z"/></g></svg>